#Comment line ignore any data following # character 
#Hierarchical Translation and Rotation (.htr) file 
[Header]	
#Header keywords are followed by a single value 
FileType HTR		#Single word string
DataType HTRS		#Translation followed by rotation and scale data
FileVersion 1		#integer
NumSegments 84		#integer
NumFrames 2		#integer
DataFrameRate 30		#integer, data frame rate in this file
EulerRotationOrder ZYX
CalibrationUnits mm
RotationUnits Degrees
GlobalAxisofGravity Y
BoneLengthAxis Y
ScaleFactor 1.00
[SegmentNames&Hierarchy]
#CHILD	PARENT
MASTER GLOBAL
root MASTER
chest root
L_mid_tent01 root
R_mid_tent01 root
spine01 root
Bip01_Neck chest
L_humerus chest
R_humerus chest
weapon_bone chest
Bip01_Head Bip01_Neck
eye_left_bone Bip01_Head
eye_right_bone Bip01_Head
L_forearm L_humerus
L_front_hand L_forearm
L_weapon_bone L_forearm
L_front_hand01_01 L_front_hand
L_front_hand02_01 L_front_hand
L_front_hand03_01 L_front_hand
L_front_hand01_02 L_front_hand01_01
L_front_hand02_02 L_front_hand02_01
L_front_hand03_02 L_front_hand03_01
R_forearm R_humerus
R_front_hand R_forearm
R_weapon_bone R_forearm
R_front_hand01_01 R_front_hand
R_front_hand02_01 R_front_hand
R_front_hand03_01 R_front_hand
R_front_hand01_02 R_front_hand01_01
R_front_hand02_02 R_front_hand02_01
R_front_hand03_02 R_front_hand03_01
null_rope01_connect L_mid_tent01
Rope1_Seg01 null_rope01_connect
Rope1_Seg02 Rope1_Seg01
Rope1_Seg03 Rope1_Seg02
Rope1_Seg04 Rope1_Seg03
Rope1_Seg05 Rope1_Seg04
Rope1_Seg06 Rope1_Seg05
Rope1_Seg07 Rope1_Seg06
Rope1_Seg09 Rope1_Seg07
L_mid_hand01 Rope1_Seg09
L_mid_hand02 Rope1_Seg09
L_mid_hand03 Rope1_Seg09
null_rope02_connect R_mid_tent01
Rope2_Seg01 null_rope02_connect
Rope2_Seg02 Rope2_Seg01
Rope2_Seg03 Rope2_Seg02
Rope2_Seg04 Rope2_Seg03
Rope2_Seg05 Rope2_Seg04
Rope2_Seg06 Rope2_Seg05
Rope2_Seg07 Rope2_Seg06
Rope2_Seg09 Rope2_Seg07
R_mid_hand01 Rope2_Seg09
R_mid_hand02 Rope2_Seg09
R_mid_hand03 Rope2_Seg09
spine02 spine01
spine03 spine02
pelvis spine03
null_rope03_connect pelvis
null_rope04_connect pelvis
Rope3_Seg01 null_rope03_connect
Rope3_Seg02 Rope3_Seg01
Rope3_Seg03 Rope3_Seg02
Rope3_Seg04 Rope3_Seg03
Rope3_Seg05 Rope3_Seg04
Rope3_Seg06 Rope3_Seg05
Rope3_Seg07 Rope3_Seg06
Rope3_Seg08 Rope3_Seg07
Rope3_Seg09 Rope3_Seg08
R_rear_hand01 Rope3_Seg09
R_rear_hand02 Rope3_Seg09
R_rear_hand03 Rope3_Seg09
Rope4_Seg01 null_rope04_connect
Rope4_Seg02 Rope4_Seg01
Rope4_Seg03 Rope4_Seg02
Rope4_Seg04 Rope4_Seg03
Rope4_Seg05 Rope4_Seg04
Rope4_Seg06 Rope4_Seg05
Rope4_Seg07 Rope4_Seg06
Rope4_Seg08 Rope4_Seg07
Rope4_Seg09 Rope4_Seg08
L_rear_hand01 Rope4_Seg09
L_rear_hand02 Rope4_Seg09
L_rear_hand03 Rope4_Seg09
[BasePosition]
#SegmentName Tx, Ty, Tz, Rx, Ry, Rz, BoneLength
MASTER 0.000000 0.000000 0.000000 -90.000000 0.000000 0.000000 10.000000 
root 0.000000 0.000000 0.000000 0.000000 0.000000 0.000000 10.000000 
chest 0.000000 0.000000 0.000000 0.000000 0.000000 0.000000 10.000000 
L_mid_tent01 0.000000 0.000000 0.000000 0.000000 0.000000 0.000000 10.000000 
R_mid_tent01 0.000000 0.000000 0.000000 0.000000 0.000000 0.000000 10.000000 
spine01 0.000000 0.000000 0.000000 0.000000 0.000000 0.000000 10.000000 
Bip01_Neck 0.000000 0.000000 0.000000 0.000000 0.000000 0.000000 10.000000 
L_humerus 0.000000 0.000000 0.000000 0.000000 0.000000 0.000000 10.000000 
R_humerus 0.000000 0.000000 0.000000 0.000000 0.000000 0.000000 10.000000 
weapon_bone 0.000000 0.000000 0.000000 0.000000 0.000000 0.000000 10.000000 
Bip01_Head 0.000000 0.000000 0.000000 0.000000 0.000000 0.000000 10.000000 
eye_left_bone 0.000000 0.000000 0.000000 0.000000 0.000000 0.000000 10.000000 
eye_right_bone 0.000000 0.000000 0.000000 0.000000 0.000000 0.000000 10.000000 
L_forearm 0.000000 0.000000 0.000000 0.000000 0.000000 0.000000 10.000000 
L_front_hand 0.000000 0.000000 0.000000 0.000000 0.000000 0.000000 10.000000 
L_weapon_bone 0.000000 0.000000 0.000000 0.000000 0.000000 0.000000 10.000000 
L_front_hand01_01 0.000000 0.000000 0.000000 0.000000 0.000000 0.000000 10.000000 
L_front_hand02_01 0.000000 0.000000 0.000000 0.000000 0.000000 0.000000 10.000000 
L_front_hand03_01 0.000000 0.000000 0.000000 0.000000 0.000000 0.000000 10.000000 
L_front_hand01_02 0.000000 0.000000 0.000000 0.000000 0.000000 0.000000 10.000000 
L_front_hand02_02 0.000000 0.000000 0.000000 0.000000 0.000000 0.000000 10.000000 
L_front_hand03_02 0.000000 0.000000 0.000000 0.000000 0.000000 0.000000 10.000000 
R_forearm 0.000000 0.000000 0.000000 0.000000 0.000000 0.000000 10.000000 
R_front_hand 0.000000 0.000000 0.000000 0.000000 0.000000 0.000000 10.000000 
R_weapon_bone 0.000000 0.000000 0.000000 0.000000 0.000000 0.000000 10.000000 
R_front_hand01_01 0.000000 0.000000 0.000000 0.000000 0.000000 0.000000 10.000000 
R_front_hand02_01 0.000000 0.000000 0.000000 0.000000 0.000000 0.000000 10.000000 
R_front_hand03_01 0.000000 0.000000 0.000000 0.000000 0.000000 0.000000 10.000000 
R_front_hand01_02 0.000000 0.000000 0.000000 0.000000 0.000000 0.000000 10.000000 
R_front_hand02_02 0.000000 0.000000 0.000000 0.000000 0.000000 0.000000 10.000000 
R_front_hand03_02 0.000000 0.000000 0.000000 0.000000 0.000000 0.000000 10.000000 
null_rope01_connect 0.000000 0.000000 0.000000 0.000000 0.000000 0.000000 10.000000 
Rope1_Seg01 0.000000 0.000000 0.000000 0.000000 0.000000 0.000000 10.000000 
Rope1_Seg02 0.000000 0.000000 0.000000 0.000000 0.000000 0.000000 10.000000 
Rope1_Seg03 0.000000 0.000000 0.000000 0.000000 0.000000 0.000000 10.000000 
Rope1_Seg04 0.000000 0.000000 0.000000 0.000000 0.000000 0.000000 10.000000 
Rope1_Seg05 0.000000 0.000000 0.000000 0.000000 0.000000 0.000000 10.000000 
Rope1_Seg06 0.000000 0.000000 0.000000 0.000000 0.000000 0.000000 10.000000 
Rope1_Seg07 0.000000 0.000000 0.000000 0.000000 0.000000 0.000000 10.000000 
Rope1_Seg09 0.000000 0.000000 0.000000 0.000000 0.000000 0.000000 10.000000 
L_mid_hand01 0.000000 0.000000 0.000000 0.000000 0.000000 0.000000 10.000000 
L_mid_hand02 0.000000 0.000000 0.000000 0.000000 0.000000 0.000000 10.000000 
L_mid_hand03 0.000000 0.000000 0.000000 0.000000 0.000000 0.000000 10.000000 
null_rope02_connect 0.000000 0.000000 0.000000 0.000000 0.000000 0.000000 10.000000 
Rope2_Seg01 0.000000 0.000000 0.000000 0.000000 0.000000 0.000000 10.000000 
Rope2_Seg02 0.000000 0.000000 0.000000 0.000000 0.000000 0.000000 10.000000 
Rope2_Seg03 0.000000 0.000000 0.000000 0.000000 0.000000 0.000000 10.000000 
Rope2_Seg04 0.000000 0.000000 0.000000 0.000000 0.000000 0.000000 10.000000 
Rope2_Seg05 0.000000 0.000000 0.000000 0.000000 0.000000 0.000000 10.000000 
Rope2_Seg06 0.000000 0.000000 0.000000 0.000000 0.000000 0.000000 10.000000 
Rope2_Seg07 0.000000 0.000000 0.000000 0.000000 0.000000 0.000000 10.000000 
Rope2_Seg09 0.000000 0.000000 0.000000 0.000000 0.000000 0.000000 10.000000 
R_mid_hand01 0.000000 0.000000 0.000000 0.000000 0.000000 0.000000 10.000000 
R_mid_hand02 0.000000 0.000000 0.000000 0.000000 0.000000 0.000000 10.000000 
R_mid_hand03 0.000000 0.000000 0.000000 0.000000 0.000000 0.000000 10.000000 
spine02 0.000000 0.000000 0.000000 0.000000 0.000000 0.000000 10.000000 
spine03 0.000000 0.000000 0.000000 0.000000 0.000000 0.000000 10.000000 
pelvis 0.000000 0.000000 0.000000 0.000000 0.000000 0.000000 10.000000 
null_rope03_connect 0.000000 0.000000 0.000000 0.000000 0.000000 0.000000 10.000000 
null_rope04_connect 0.000000 0.000000 0.000000 0.000000 0.000000 0.000000 10.000000 
Rope3_Seg01 0.000000 0.000000 0.000000 0.000000 0.000000 0.000000 10.000000 
Rope3_Seg02 0.000000 0.000000 0.000000 0.000000 0.000000 0.000000 10.000000 
Rope3_Seg03 0.000000 0.000000 0.000000 0.000000 0.000000 0.000000 10.000000 
Rope3_Seg04 0.000000 0.000000 0.000000 0.000000 0.000000 0.000000 10.000000 
Rope3_Seg05 0.000000 0.000000 0.000000 0.000000 0.000000 0.000000 10.000000 
Rope3_Seg06 0.000000 0.000000 0.000000 0.000000 0.000000 0.000000 10.000000 
Rope3_Seg07 0.000000 0.000000 0.000000 0.000000 0.000000 0.000000 10.000000 
Rope3_Seg08 0.000000 0.000000 0.000000 0.000000 0.000000 0.000000 10.000000 
Rope3_Seg09 0.000000 0.000000 0.000000 0.000000 0.000000 0.000000 10.000000 
R_rear_hand01 0.000000 0.000000 0.000000 0.000000 0.000000 0.000000 10.000000 
R_rear_hand02 0.000000 0.000000 0.000000 0.000000 0.000000 0.000000 10.000000 
R_rear_hand03 0.000000 0.000000 0.000000 0.000000 0.000000 0.000000 10.000000 
Rope4_Seg01 0.000000 0.000000 0.000000 0.000000 0.000000 0.000000 10.000000 
Rope4_Seg02 0.000000 0.000000 0.000000 0.000000 0.000000 0.000000 10.000000 
Rope4_Seg03 0.000000 0.000000 0.000000 0.000000 0.000000 0.000000 10.000000 
Rope4_Seg04 0.000000 0.000000 0.000000 0.000000 0.000000 0.000000 10.000000 
Rope4_Seg05 0.000000 0.000000 0.000000 0.000000 0.000000 0.000000 10.000000 
Rope4_Seg06 0.000000 0.000000 0.000000 0.000000 0.000000 0.000000 10.000000 
Rope4_Seg07 0.000000 0.000000 0.000000 0.000000 0.000000 0.000000 10.000000 
Rope4_Seg08 0.000000 0.000000 0.000000 0.000000 0.000000 0.000000 10.000000 
Rope4_Seg09 0.000000 0.000000 0.000000 0.000000 0.000000 0.000000 10.000000 
L_rear_hand01 0.000000 0.000000 0.000000 0.000000 0.000000 0.000000 10.000000 
L_rear_hand02 0.000000 0.000000 0.000000 0.000000 0.000000 0.000000 10.000000 
L_rear_hand03 0.000000 0.000000 0.000000 0.000000 0.000000 0.000000 10.000000 
#Beginning of Data. Separated by tabs
#Fr	Tx	Ty	Tz	Rx	Ry	Rz	SF
[MASTER]
67 50.513229 17111.623047 -58.084740 0.001660 0.001660 0.001660 17111.798828
68 33.208733 17266.287109 -45.619621 0.001660 0.001660 0.001660 17266.378906
[root]
67 -16.502293 -62.822266 1500.000000 -94.168503 -31.172983 -88.593765 1501.405640
68 -16.502293 -62.822266 1500.000000 -93.173210 -33.158173 -88.647987 1501.405640
[chest]
67 -84.512650 -34.090519 0.000000 -7.297034 -2.545389 176.114868 91.129311
68 -84.512650 -34.090519 0.000000 -5.273082 -1.403806 174.738312 91.129311
[L_mid_tent01]
67 27.298611 22.179258 -249.918701 -4.158180 32.565498 60.679703 252.381638
68 27.298603 22.179258 -249.918701 -2.874358 36.556664 65.709663 252.381638
[R_mid_tent01]
67 23.228794 24.509907 226.238495 175.880890 -28.501202 55.604519 228.744751
68 23.228794 24.509907 226.238495 173.896362 -30.891716 58.388298 228.744751
[spine01]
67 -0.361383 -0.195265 0.000000 0.001916 0.001356 19.432337 0.410763
68 -0.361383 -0.195265 0.000000 0.001924 0.001344 20.130161 0.410763
[Bip01_Neck]
67 165.484543 71.581718 0.000119 176.643677 -1.657967 43.431911 180.302734
68 165.484543 71.581718 0.000119 176.643677 -1.657967 43.431911 180.302734
[L_humerus]
67 -13.983130 -135.272980 -120.471481 -0.238327 83.764801 90.721336 181.680161
68 -13.983130 -135.272980 -120.471481 -2.251528 79.857590 88.439682 181.680161
[R_humerus]
67 -13.983309 -135.273102 125.287651 58.064182 -84.293839 37.370094 184.909012
68 -13.983309 -135.273102 125.287651 41.356926 -80.875427 54.135429 184.909012
[weapon_bone]
67 235.964890 -300.705902 0.000000 0.000000 -89.951546 -128.212341 382.234833
68 235.964890 -300.705902 0.000000 0.000000 -89.951546 -128.212341 382.234833
[Bip01_Head]
67 213.442688 185.715775 11.775532 18.237587 3.036979 -43.894520 283.172729
68 213.442612 185.715744 11.775889 15.004287 2.940829 -43.898624 283.172668
[eye_left_bone]
67 -24.626970 125.451866 -64.772606 0.000000 -90.000000 -99.840431 143.318359
68 -24.626970 125.451866 -64.772606 0.000000 -90.000000 -99.840431 143.318359
[eye_right_bone]
67 -24.626970 125.451866 64.327362 0.000000 -89.965736 80.156380 143.117676
68 -24.626970 125.451866 64.327362 0.000000 -89.965736 80.156380 143.117676
[L_forearm]
67 322.776093 0.000000 -0.000119 0.000397 -0.002313 -109.456329 322.776093
68 322.776093 0.000000 -0.000119 0.000396 -0.002314 -109.447243 322.776093
[L_front_hand]
67 241.149185 -0.042021 -3.300071 -178.667953 -1.835447 -27.422350 241.171753
68 241.149185 -0.042021 -3.300071 -178.667953 -1.835447 -27.422350 241.171753
[L_weapon_bone]
67 156.183838 0.000000 0.000000 0.000014 0.000007 0.000001 156.183838
68 156.183838 0.000000 0.000000 0.000014 0.000007 0.000001 156.183838
[L_front_hand01_01]
67 86.095154 20.947098 -0.655860 -0.366594 -0.477154 75.385574 88.609184
68 86.095154 20.947098 -0.655860 -0.366594 -0.477154 75.385574 88.609184
[L_front_hand02_01]
67 86.935165 -11.437475 24.513514 154.399796 -59.883835 -61.369587 91.046425
68 86.935165 -11.437475 24.513514 154.399796 -59.883835 -61.369587 91.046425
[L_front_hand03_01]
67 86.637497 -14.123976 -20.424902 -153.913849 58.118122 -62.702866 90.126129
68 86.637497 -14.123976 -20.424902 -153.913849 58.118122 -62.702866 90.126129
[L_front_hand01_02]
67 71.020905 -0.000179 0.000030 0.000334 -0.002323 -106.379684 71.020905
68 71.020905 -0.000179 0.000030 0.000334 -0.002323 -106.379684 71.020905
[L_front_hand02_02]
67 71.020927 -0.000119 0.000060 0.000334 -0.002323 -106.379684 71.020927
68 71.020927 -0.000119 0.000060 0.000334 -0.002323 -106.379684 71.020927
[L_front_hand03_02]
67 71.020905 -0.000060 0.000060 0.000334 -0.002323 -106.379684 71.020905
68 71.020905 -0.000060 0.000060 0.000334 -0.002323 -106.379684 71.020905
[R_forearm]
67 322.776428 -0.000060 0.000030 0.202076 0.065241 -108.110153 322.776428
68 322.776428 -0.000060 0.000030 0.202084 0.065217 -108.096420 322.776428
[R_front_hand]
67 238.847015 -0.006795 2.210259 -2.635298 -10.645461 -26.312506 238.857239
68 238.847015 -0.006795 2.210259 -2.635298 -10.645461 -26.312506 238.857239
[R_weapon_bone]
67 155.664093 0.002503 -0.000030 0.003487 0.001180 -90.988930 155.664078
68 155.664093 0.002503 -0.000030 0.003487 0.001180 -90.988930 155.664078
[R_front_hand01_01]
67 87.624611 14.231146 22.918642 -154.633499 -59.950619 61.746044 91.683487
68 87.624611 14.231146 22.918642 -154.633499 -59.950619 61.746044 91.683487
[R_front_hand02_01]
67 89.356956 14.367283 -19.491137 154.602661 58.302849 63.744389 92.579636
68 89.356956 14.367283 -19.491137 154.602661 58.302849 63.744389 92.579636
[R_front_hand03_01]
67 87.286232 -22.307278 -0.143439 0.162155 -0.423168 -75.767921 90.091743
68 87.286232 -22.307278 -0.143439 0.162155 -0.423168 -75.767921 90.091743
[R_front_hand01_02]
67 71.020905 0.000060 0.000119 0.002323 -0.000334 106.381714 71.020905
68 71.020905 0.000060 0.000119 0.002323 -0.000334 106.381714 71.020905
[R_front_hand02_02]
67 71.020844 -0.000030 -0.000119 0.002323 -0.000334 106.381714 71.020836
68 71.020844 -0.000030 -0.000119 0.002323 -0.000334 106.381714 71.020836
[R_front_hand03_02]
67 71.020905 0.000000 0.000030 0.002323 -0.000334 106.381714 71.020905
68 71.020905 0.000000 0.000030 0.002323 -0.000334 106.381714 71.020905
[null_rope01_connect]
67 328.732483 0.000000 -0.000238 -130.549820 -54.373604 -169.416000 328.732483
68 328.732483 0.000000 -0.000238 -129.726654 -51.387730 -173.118500 328.732483
[Rope1_Seg01]
67 0.000038 -0.001153 0.000000 -178.152634 -50.159702 -94.968712 0.001154
68 0.000038 -0.001170 0.000000 -178.708206 -50.296219 -94.484940 0.001171
[Rope1_Seg02]
67 139.999863 -0.000179 0.000000 -2.864737 -4.240957 2.538670 139.999863
68 139.999863 -0.000179 0.000000 -2.129888 -3.505248 2.209900 139.999863
[Rope1_Seg03]
67 139.999924 0.000060 -0.000060 -6.928578 -6.622885 3.554925 139.999924
68 139.999924 0.000060 -0.000060 -4.539064 -5.265840 3.069772 139.999924
[Rope1_Seg04]
67 139.999924 -0.000060 -0.000119 -44.710209 -14.081976 7.975601 139.999924
68 139.999924 -0.000060 -0.000119 -15.711628 -9.633324 5.627307 139.999924
[Rope1_Seg05]
67 139.999832 0.000119 -0.000060 -101.002602 -29.586697 -8.258698 139.999832
68 139.999832 0.000119 -0.000060 -141.139679 -28.188747 12.802938 139.999832
[Rope1_Seg06]
67 139.999954 0.000119 -0.000060 48.382336 7.759237 21.594456 139.999954
68 139.999954 0.000119 -0.000060 44.964516 8.484566 13.929709 139.999954
[Rope1_Seg07]
67 139.999985 0.000060 0.000000 28.832579 13.566122 9.222600 139.999985
68 139.999985 0.000060 0.000000 43.816998 14.856942 14.278792 139.999985
[Rope1_Seg09]
67 121.602913 0.000119 -0.000089 -89.793175 -1.359789 0.847147 121.602913
68 121.602913 0.000119 -0.000089 -89.793175 -1.359789 0.847147 121.602913
[L_mid_hand01]
67 103.859421 1.038730 8.195221 130.544373 -67.584534 -38.866943 104.187431
68 103.859421 1.038730 8.195221 130.544373 -67.584534 -38.866943 104.187431
[L_mid_hand02]
67 105.572853 -4.139662 -10.864139 -168.923172 43.409309 -73.498886 106.211075
68 105.572853 -4.139662 -10.864139 -168.923172 43.409309 -73.498886 106.211075
[L_mid_hand03]
67 104.641464 17.579376 -3.913581 -6.012626 17.808172 74.893661 106.179977
68 104.641464 17.579376 -3.913581 -6.012627 17.808174 74.893669 106.179977
[null_rope02_connect]
67 328.732849 0.000179 -0.000119 -99.570847 62.750137 14.595648 328.732849
68 328.732849 0.000179 -0.000119 -99.214058 59.472164 14.998713 328.732849
[Rope2_Seg01]
67 0.000059 -0.001144 0.000000 -79.458214 -43.851105 -93.630814 0.001146
68 0.000059 -0.001163 0.000000 -82.601456 -45.858685 -91.947098 0.001165
[Rope2_Seg02]
67 139.999741 -0.000060 -0.000119 4.137980 -2.151244 5.816765 139.999756
68 139.999741 -0.000060 -0.000119 3.932644 -2.480267 5.611255 139.999756
[Rope2_Seg03]
67 140.000107 0.000030 0.000000 8.985428 -2.813972 9.827341 140.000107
68 140.000107 0.000030 0.000000 8.234619 -3.253034 9.054034 140.000107
[Rope2_Seg04]
67 139.999802 0.000000 -0.000060 45.625591 -9.597930 30.405243 139.999802
68 139.999802 0.000000 -0.000060 40.880791 -11.171767 25.944773 139.999802
[Rope2_Seg05]
67 139.999985 -0.000060 0.000119 -1.342714 11.233610 -5.773404 139.999985
68 139.999985 -0.000060 0.000119 0.503238 11.099483 -4.339216 139.999985
[Rope2_Seg06]
67 139.999893 -0.000030 -0.000119 -17.913273 -0.617300 -21.553709 139.999893
68 139.999893 -0.000030 -0.000119 -17.036928 2.689820 -19.507088 139.999893
[Rope2_Seg07]
67 139.999893 0.000060 -0.000060 -2.269258 2.533278 -4.408594 139.999893
68 139.999893 0.000060 -0.000060 -1.876708 2.944595 -3.748215 139.999893
[Rope2_Seg09]
67 121.338966 0.000089 -0.000060 33.793236 -1.359788 -0.847141 121.338966
68 121.338966 0.000089 -0.000060 33.793236 -1.359788 -0.847141 121.338966
[R_mid_hand01]
67 104.680779 11.144459 -10.335981 -16.212063 45.237247 70.462852 105.778534
68 104.680779 11.144459 -10.335981 -16.212063 45.237247 70.462852 105.778534
[R_mid_hand02]
67 104.070427 2.443552 8.231699 49.067368 -67.749771 39.286453 104.424065
68 104.070427 2.443552 8.231699 49.067368 -67.749771 39.286453 104.424065
[R_mid_hand03]
67 106.028137 -11.221827 -5.996406 -177.101105 15.551026 -76.585571 106.788818
68 106.028137 -11.221827 -5.996406 -177.101105 15.551026 -76.585571 106.788818
[spine02]
67 129.756927 0.001550 0.000119 0.361998 -4.044625 -12.969912 129.756927
68 129.756927 0.001550 0.000119 0.361352 -4.044683 -12.951626 129.756927
[spine03]
67 78.613327 0.081778 -4.898988 1.897666 3.830709 16.508074 78.765862
68 78.613319 0.081781 -4.898987 1.897373 3.830853 16.499317 78.765862
[pelvis]
67 169.435242 0.051022 0.000000 1.836723 -0.279157 -5.336573 169.435257
68 169.435242 0.051022 0.000000 1.536984 -0.324629 -0.749179 169.435257
[null_rope03_connect]
67 -1.257226 -2.466202 137.391083 161.973068 -89.176231 -58.395298 137.418976
68 -1.257226 -2.466202 137.391083 0.000000 -89.440826 100.256622 137.418976
[null_rope04_connect]
67 -1.259640 -2.480268 -137.844437 161.973068 -89.176231 -58.395298 137.872513
68 -1.259640 -2.480268 -137.844437 0.000000 -89.440826 100.256622 137.872513
[Rope3_Seg01]
67 0.000000 0.000000 0.000000 12.585960 12.626856 -96.900734 0.000000
68 0.000000 0.000000 0.000000 13.452667 9.906355 -96.158104 0.000000
[Rope3_Seg02]
67 139.999924 -0.000119 0.000060 1.198188 -3.389813 4.747464 139.999924
68 139.999924 -0.000119 0.000060 1.058161 -2.569827 4.545334 139.999924
[Rope3_Seg03]
67 139.999924 -0.000119 0.000119 1.144828 -4.290269 6.530193 139.999924
68 139.999924 -0.000119 0.000119 0.974920 -3.109818 5.934866 139.999924
[Rope3_Seg04]
67 139.999924 0.000119 0.000000 0.428276 -6.824148 12.860107 139.999924
68 139.999924 0.000119 0.000000 0.467143 -4.922773 11.470582 139.999924
[Rope3_Seg05]
67 139.999924 -0.000238 0.000060 0.202794 -1.939314 -1.653896 139.999924
68 139.999924 -0.000238 0.000060 0.167251 -1.208377 -1.162410 139.999924
[Rope3_Seg06]
67 139.999893 -0.000119 -0.000060 -0.435944 1.298702 -8.404216 139.999893
68 139.999893 -0.000119 -0.000060 -0.355789 1.448723 -8.255105 139.999893
[Rope3_Seg07]
67 139.999771 0.000060 -0.000119 0.182253 -0.097559 -2.926667 139.999771
68 139.999771 0.000060 -0.000119 0.165318 0.179030 -2.911408 139.999771
[Rope3_Seg08]
67 139.999985 -0.000060 0.000000 0.289648 -0.067811 -1.863123 139.999985
68 139.999985 -0.000060 0.000000 0.282002 0.100149 -1.828078 139.999985
[Rope3_Seg09]
67 90.185997 -0.000179 -0.000060 89.793228 -1.359877 -0.847183 90.185997
68 90.185997 -0.000179 -0.000060 89.793228 -1.359877 -0.847183 90.185997
[R_rear_hand01]
67 103.366196 -6.073594 -10.757982 -177.714203 24.565960 -73.910950 104.101845
68 103.366196 -6.073594 -10.757982 -177.714203 24.565960 -73.910950 104.101845
[R_rear_hand02]
67 100.509819 12.039542 -7.992327 -12.874829 36.868488 72.167213 101.543350
68 100.509819 12.039542 -7.992327 -12.874829 36.868488 72.167213 101.543350
[R_rear_hand03]
67 101.539970 5.215704 5.435467 71.484627 -71.816643 21.513817 101.819031
68 101.539970 5.215704 5.435467 71.484581 -71.816628 21.513813 101.819031
[Rope4_Seg01]
67 -0.000008 -0.001153 -0.000153 -99.430763 5.164386 -116.409019 0.001163
68 -0.000009 -0.001170 -0.000153 -98.834877 2.905566 -117.473640 0.001180
[Rope4_Seg02]
67 139.999985 0.000060 0.000119 0.207632 -2.913643 -1.873710 139.999985
68 139.999985 0.000060 0.000119 -0.092268 -3.441844 -0.826764 139.999985
[Rope4_Seg03]
67 139.999924 0.000000 -0.000238 0.236349 -3.694301 -2.366360 139.999924
68 139.999924 0.000000 -0.000238 -0.046257 -4.124527 -1.006193 139.999924
[Rope4_Seg04]
67 139.999985 0.000000 0.000119 0.767603 -10.724509 -7.143474 139.999985
68 139.999985 0.000000 0.000119 0.442272 -10.836739 -4.224063 139.999985
[Rope4_Seg05]
67 139.999802 -0.000060 -0.000119 0.172472 2.516479 1.919952 139.999802
68 139.999802 -0.000060 -0.000119 0.173787 -0.470575 1.445138 139.999802
[Rope4_Seg06]
67 139.999924 0.000000 0.000060 0.804134 12.215131 8.416530 139.999924
68 139.999924 0.000000 0.000060 0.809973 12.343987 7.142713 139.999924
[Rope4_Seg07]
67 139.999802 0.000000 0.000000 0.012107 4.073783 2.798451 139.999802
68 139.999802 0.000000 0.000000 0.109976 4.744721 2.852723 139.999802
[Rope4_Seg08]
67 139.999924 0.000000 0.000119 -1.577754 2.169268 1.500459 139.999924
68 139.999924 0.000000 0.000119 -1.534124 2.241610 1.406332 139.999924
[Rope4_Seg09]
67 90.185791 0.000060 0.000060 -135.617828 2.228885 0.850567 90.185791
68 90.185791 0.000060 0.000060 -135.617828 2.228885 0.850567 90.185791
[L_rear_hand01]
67 101.696655 -8.392275 -7.654577 -12.874834 -36.868492 107.832779 102.329041
68 101.696655 -8.392275 -7.654577 -12.874827 -36.868492 107.832764 102.329041
[L_rear_hand02]
67 102.726799 -1.568258 5.773216 71.484581 71.816628 158.486160 102.900848
68 102.726799 -1.568258 5.773216 71.484581 71.816628 158.486160 102.900848
[L_rear_hand03]
67 104.552910 9.721220 -10.420293 -177.714203 -24.565960 -106.089035 105.519653
68 104.552910 9.721220 -10.420293 -177.714203 -24.565960 -106.089035 105.519653
